<?xml version="1.0" encoding="UTF-8"?>
<svg xmlns="http://www.w3.org/2000/svg" xmlns:xlink="http://www.w3.org/1999/xlink" viewBox="0 0 2000 2000">
  <defs>
    <style>
      .cls-1, .cls-2, .cls-3, .cls-4 {
        fill: #fff;
      }

      .cls-1, .cls-5, .cls-6, .cls-7, .cls-8, .cls-3, .cls-9, .cls-10, .cls-11, .cls-12, .cls-13, .cls-14, .cls-15, .cls-16, .cls-17 {
        stroke-width: 0px;
      }

      .cls-1, .cls-5, .cls-6, .cls-7, .cls-8, .cls-3, .cls-11, .cls-12, .cls-13, .cls-14, .cls-15, .cls-16, .cls-17 {
        fill-rule: evenodd;
      }

      .cls-2 {
        font-size: 122.18px;
      }

      .cls-2, .cls-4 {
        font-family: Century751BT-SemiBold, 'Century751 SeBd BT';
        font-weight: 600;
      }

      .cls-5 {
        fill: url(#New_Gradient_Swatch_13-2);
      }

      .cls-6 {
        fill: #fff2e1;
        mix-blend-mode: overlay;
        opacity: .22;
      }

      .cls-18 {
        isolation: isolate;
      }

      .cls-7 {
        fill: url(#New_Gradient_Swatch_13);
      }

      .cls-19 {
        letter-spacing: -.02em;
      }

      .cls-8 {
        fill: #182c55;
      }

      .cls-3 {
        mix-blend-mode: screen;
        opacity: .35;
      }

      .cls-9 {
        clip-rule: evenodd;
        fill: none;
      }

      .cls-10 {
        fill: #010101;
      }

      .cls-11 {
        fill: url(#linear-gradient);
      }

      .cls-12 {
        fill: #e76c24;
      }

      .cls-20 {
        letter-spacing: .02em;
      }

      .cls-21 {
        letter-spacing: -.04em;
      }

      .cls-13 {
        fill: url(#New_Gradient_Swatch_13-5);
      }

      .cls-22 {
        clip-path: url(#clippath);
      }

      .cls-14 {
        fill: #524b9f;
      }

      .cls-23 {
        letter-spacing: -.06em;
      }

      .cls-15 {
        fill: url(#New_Gradient_Swatch_13-4);
      }

      .cls-4 {
        font-size: 230.18px;
      }

      .cls-24 {
        letter-spacing: -.05em;
      }

      .cls-16 {
        fill: url(#New_Gradient_Swatch_13-3);
      }

      .cls-17 {
        fill: url(#New_Gradient_Swatch_13-6);
      }
    </style>
    <linearGradient id="linear-gradient" x1="647.82" y1="293.16" x2="1305.61" y2="1011.41" gradientUnits="userSpaceOnUse">
      <stop offset="0" stop-color="#5c6eb4"/>
      <stop offset=".46" stop-color="#4f3996"/>
      <stop offset="1" stop-color="#56276d"/>
    </linearGradient>
    <linearGradient id="New_Gradient_Swatch_13" data-name="New Gradient Swatch 13" x1="1526.28" y1="853.73" x2="1031.9" y2="1202.71" gradientUnits="userSpaceOnUse">
      <stop offset="0" stop-color="#5ac7d8"/>
      <stop offset=".46" stop-color="#31a8e0"/>
      <stop offset="1" stop-color="#4370b7"/>
    </linearGradient>
    <linearGradient id="New_Gradient_Swatch_13-2" data-name="New Gradient Swatch 13" x1="1444.84" y1="738.35" x2="950.45" y2="1087.32" xlink:href="#New_Gradient_Swatch_13"/>
    <linearGradient id="New_Gradient_Swatch_13-3" data-name="New Gradient Swatch 13" x1="1414.3" y1="695.09" x2="919.92" y2="1044.07" xlink:href="#New_Gradient_Swatch_13"/>
    <linearGradient id="New_Gradient_Swatch_13-4" data-name="New Gradient Swatch 13" x1="509.19" y1="401.79" x2="1002.72" y2="636.21" xlink:href="#New_Gradient_Swatch_13"/>
    <linearGradient id="New_Gradient_Swatch_13-5" data-name="New Gradient Swatch 13" x1="526.33" y1="365.72" x2="1019.86" y2="600.15" xlink:href="#New_Gradient_Swatch_13"/>
    <linearGradient id="New_Gradient_Swatch_13-6" data-name="New Gradient Swatch 13" x1="581.56" y1="249.44" x2="1075.09" y2="483.86" xlink:href="#New_Gradient_Swatch_13"/>
    <clipPath id="clippath">
      <path class="cls-9" d="M1691.65,427.08c-346.68,632.37-2025.8,979.05-1215.57,262.96-236.76,295.43,771.73,76.52,1215.57-262.96h0Z"/>
    </clipPath>
  </defs>
  <g class="cls-18">
    <g id="Background">
      <rect class="cls-10" x="-18.58" y="-2" width="2020.99" height="2020.58"/>
      <g>
        <g>
          <path class="cls-11" d="M1464.11,733.63c-.06-2.16-.06-4.37-.17-6.53,0-1.27-.06-2.6-.11-3.87-.11-3.49-.28-6.97-.44-10.46-.17-2.38-.33-4.76-.5-7.08-.44-6.09-1-12.12-1.66-18.09-4.04-36.68-12.17-72.04-24.07-105.73-26.06-74.08-69.93-139.81-126.53-191.93-7.47-6.86-15.1-13.5-22.96-19.92-3.93-3.26-8.35-6.47-12.5-9.74-5.2-3.98-10.51-7.86-15.93-11.67-16.16-11.4-33.09-21.8-50.62-30.98-5.81-2.77-12.06-6.03-17.87-8.8-61.69-28.99-131.01-44.1-203.6-44.54-121.72-.72-195.25,42.44-257.16,83.71-49.41,33.14-91.57,53.78-142.13,131.73,1.88-.06,3.82-.17,5.75-.17,5.59-.22,11.29-.33,16.99-.33,23.24,0,46.03,1.44,68.38,4.26,98.04,12.12,186.51,50.02,255.77,105.51,4.65,3.71,9.24,7.52,13.72,11.45,39.67,34.36,72.31,74.69,95.94,119.39,2.93,5.42,5.7,10.9,8.3,16.49,22.46,47.8,34.86,100.14,34.86,154.97,0,8.08-.28,16.1-.77,24.07-.39,5.75-.94,11.45-1.6,17.15-2.82,24.62-8.13,48.52-15.77,71.65v.06c-2.05,6.36-4.32,12.67-6.81,18.87-23.35,60.08-62.35,113.86-112.81,157.96,0,0,0,.06-.06.06-9.18,8.02-18.81,15.71-28.71,23.07h-.06c-3.04,2.27-6.09,4.48-9.18,6.69,24.34,3.93,49.63,5.81,75.35,5.81,186.67,0,349.28-107.39,427.62-263.24,9.74-19.2,17.87-39.61,24.84-60.25,1.33-3.93,2.6-7.91,3.76-11.9.5-1.44.94-2.88,1.33-4.37.5-1.66,1-3.32,1.38-4.98.11-.11.17-.22.11-.33,3.15-11.18,5.92-22.46,8.24-33.92,1.66-7.91,3.04-15.88,4.2-23.85,1.27-8.3,2.38-16.65,3.21-25.12.22-2.82.5-5.64.72-8.46.28-3.04.5-6.09.66-9.13.44-6.42.66-12.89.77-19.42.11-3.49.17-6.97.17-10.46,0-2.55,0-5.09-.06-7.64ZM1268.58,391c-14.99,15.16-33.31,31.09-54.39,47.41-44.32,34.8-101.19,72.09-164.82,108.38-2.38-4.81-4.59-9.74-6.81-14.83,62.41-35.63,118.12-72.26,161.61-106.28,20.14-15.66,37.51-30.71,51.73-44.81,4.32,3.21,8.52,6.58,12.67,10.12ZM916.26,411.58c-.66-.39-1.38-.77-2.05-1.16,86.86-25.45,170.79-54.99,239.12-84.65,6.09,2.1,12.17,4.37,18.15,6.81.94.39,1.88.77,2.77,1.22-67.94,30.6-152.31,61.19-240.23,87.69-5.86-3.32-11.78-6.58-17.76-9.9Z"/>
          <path class="cls-11" d="M1464.11,733.63c-.06-2.16-.06-4.37-.17-6.53,0-1.27-.06-2.6-.11-3.87-.11-3.49-.28-6.97-.44-10.46-.17-2.38-.33-4.76-.5-7.08-.44-6.09-1-12.12-1.66-18.09-4.04-36.68-12.17-72.04-24.07-105.73-26.06-74.08-69.93-139.81-126.53-191.93-7.47-6.86-15.1-13.5-22.96-19.92-3.93-3.26-8.35-6.47-12.5-9.74-5.2-3.98-10.51-7.86-15.93-11.67-16.16-11.4-33.09-21.8-50.62-30.98-5.81-2.77-12.06-6.03-17.87-8.8-61.69-28.99-131.01-44.1-203.6-44.54-121.72-.72-195.25,42.44-257.16,83.71-49.41,33.14-91.57,53.78-142.13,131.73,1.88-.06,3.82-.17,5.75-.17,5.59-.22,11.29-.33,16.99-.33,23.24,0,46.03,1.44,68.38,4.26,98.04,12.12,186.51,50.02,255.77,105.51,4.65,3.71,9.24,7.52,13.72,11.45,39.67,34.36,72.31,74.69,95.94,119.39,2.93,5.42,5.7,10.9,8.3,16.49,22.46,47.8,34.86,100.14,34.86,154.97,0,8.08-.28,16.1-.77,24.07-.39,5.75-.94,11.45-1.6,17.15-2.82,24.62-8.13,48.52-15.77,71.65v.06c-2.05,6.36-4.32,12.67-6.81,18.87-23.35,60.08-62.35,113.86-112.81,157.96,0,0,0,.06-.06.06-9.18,8.02-18.81,15.71-28.71,23.07h-.06c-3.04,2.27-6.09,4.48-9.18,6.69,24.34,3.93,49.63,5.81,75.35,5.81,186.67,0,349.28-107.39,427.62-263.24,9.74-19.2,17.87-39.61,24.84-60.25,1.33-3.93,2.6-7.91,3.76-11.9.5-1.44.94-2.88,1.33-4.37.5-1.66,1-3.32,1.38-4.98.11-.11.17-.22.11-.33,3.15-11.18,5.92-22.46,8.24-33.92,1.66-7.91,3.04-15.88,4.2-23.85,1.27-8.3,2.38-16.65,3.21-25.12.22-2.82.5-5.64.72-8.46.28-3.04.5-6.09.66-9.13.44-6.42.66-12.89.77-19.42.11-3.49.17-6.97.17-10.46,0-2.55,0-5.09-.06-7.64ZM1268.58,391c-14.99,15.16-33.31,31.09-54.39,47.41-44.32,34.8-101.19,72.09-164.82,108.38-2.38-4.81-4.59-9.74-6.81-14.83,62.41-35.63,118.12-72.26,161.61-106.28,20.14-15.66,37.51-30.71,51.73-44.81,4.32,3.21,8.52,6.58,12.67,10.12ZM916.26,411.58c-.66-.39-1.38-.77-2.05-1.16,86.86-25.45,170.79-54.99,239.12-84.65,6.09,2.1,12.17,4.37,18.15,6.81.94.39,1.88.77,2.77,1.22-67.94,30.6-152.31,61.19-240.23,87.69-5.86-3.32-11.78-6.58-17.76-9.9Z"/>
          <path class="cls-8" d="M987.16,264.29c72.58.46,141.92,15.54,203.6,44.52,5.8,2.78,12.06,6.03,17.86,8.81,23.42,12.29,45.68,26.67,66.55,42.67,4.17,3.25,8.58,6.49,12.52,9.74,107.83,87.42,176.47,220.99,176.47,370.56,0,53.57-8.58,104.58-24.58,152.58-6.96,20.64-15.07,41.04-24.81,60.29-78.38,155.83-240.93,263.2-427.61,263.2-25.74,0-51.02-1.86-75.36-5.8,107.37-75.6,175.77-190.61,175.77-319.55,0-227.72-213.57-412.07-477-412.07-7.65,0-15.3.23-22.73.46,50.55-77.92,92.76-98.55,142.15-131.71,61.91-41.28,135.42-84.41,257.17-83.71h0Z"/>
          <path class="cls-7" d="M1414.77,953.47c-78.38,157.92-240.93,266.44-429,266.44-32.47,0-64.23-3.25-94.84-9.51,119.42-23.19,218.44-56.58,298.91-94.84,103.89-49.62,177.4-107.6,224.93-162.09h0Z"/>
          <path class="cls-5" d="M1454.65,837.52c-3.94,19.02-9.04,37.57-15.07,55.65-39.19,64.7-121.05,142.84-256.94,207.54-87.19,41.51-196.41,77.45-330.68,100.18-70.49-20.41-134.26-56.58-187.14-104.58,10.9.46,22.49.46,34.55,0,51.02-1.62,112-10.2,177.17-23.89,211.72-44.52,469.35-143.31,578.1-234.91h0Z"/>
          <path class="cls-16" d="M1463,705.58c.7,11.59,1.16,23.65,1.16,35.71,0,24.58-1.86,48.7-5.33,72.35-92.06,91.6-364.3,196.41-585.53,242.79-64.47,13.45-124.53,22.03-174.38,23.65-17.39.46-33.39.23-48-.93,78.15-16.23,155.37-38.73,230.5-64.7,101.34-35.02,200.82-77.68,295.89-127.08,93.92-48.7,194.56-109.68,285.69-181.8h0Z"/>
          <path class="cls-15" d="M1430.52,564.83c-58.2,29.21-117.79,55.66-177.88,80-68.38,27.66-137.98,52.78-208.25,75.02-22.19,7.08-44.43,13.78-66.72,20.25-81.88,23.46-166.04,43.87-250.46,57.04-59.14,9.29-127.31,17.21-187.11,11.4-7.69-.72-18.09-1.88-28.77-4.2-2.55-19.2-3.93-38.95-4.2-59.09,131.73-13.22,295.78-72.75,441.34-144.79,8.19-4.04,16.32-8.13,24.34-12.23,26.34-13.5,51.95-27.39,76.57-41.44,63.63-36.29,120.5-73.58,164.82-108.38,21.08-16.32,39.39-32.26,54.39-47.41,7.14-7.19,13.5-14.16,19.09-20.97,7.86,6.42,15.49,13.06,22.96,19.92,52.01,48.24,93.34,107.94,119.89,174.89Z"/>
          <path class="cls-13" d="M1275.17,360.29c-5.59,6.58-12.01,13.5-19.25,20.58-14.22,14.11-31.59,29.16-51.73,44.81-43.49,34.03-99.2,70.65-161.61,106.28-24.79,14.11-50.68,28.11-77.24,41.66-10.07,5.15-20.3,10.29-30.6,15.38-141.86,69.66-300.26,126.81-427.62,139.76,2.32-83.93,26.22-162.77,66.34-230.71,32.59-2.99,68.11-7.91,105.51-14.55,14.77-2.6,29.88-5.48,45.2-8.63,67.83-13.83,139.98-32.31,209.85-53.39,87.91-26.5,172.29-57.1,240.23-87.69,12.01-5.42,23.46-10.79,34.36-16.16,17.54,9.41,34.47,19.7,50.62,30.98,5.42,3.82,10.73,7.69,15.93,11.67Z"/>
          <path class="cls-17" d="M1190.74,308.84c-11.84,5.64-24.34,11.29-37.4,16.93-68.33,29.66-152.26,59.2-239.12,84.65-64.51,18.98-130.68,35.63-193.26,48.41-45.04,9.24-88.14,16.32-127.36,20.75-3.15.39-6.31.72-9.46,1.05,85.31-131.23,233.26-217.99,401.62-217.99,73.31,0,142.85,16.49,204.99,46.2Z"/>
          <path class="cls-14" d="M1691.65,427.08c-346.68,632.37-2025.8,979.05-1215.57,262.96-236.76,295.43,771.73,76.52,1215.57-262.96h0Z"/>
          <path class="cls-12" d="M1691.65,427.08c-346.68,632.37-2025.8,979.05-1215.57,262.96-236.76,295.43,771.73,76.52,1215.57-262.96h0Z"/>
          <g class="cls-22">
            <path class="cls-3" d="M1801.32,295.28c-339.73,623.66-1985.22,965.57-1191.22,259.35-232.02,291.36,756.27,75.47,1191.22-259.35h0Z"/>
          </g>
          <path class="cls-1" d="M1553.01,602.5c.45,1.67,4.4,12.73,5.46,13.19,1.52.61,6.52-4.55,7.88-5.91l1.21-1.06c3.64-1.97,2.27-5.15,1.82-10.16-.3-3.94-.45-8.19-.91-12.13-.3-4.4-2.12-21.37-1.36-24.56l17.43-10.16c10.76-6.52,21.98-16.67,31.23-24.86l11.37-9.85c1.52-1.06,2.43-2.73,4.55-2.73l15.92,27.89c10.61,18.19,21.07,38.05,31.83,56.54l11.97,21.07c5.61,9.4,1.82,9.25,18.64-4.85,3.79-3.03,2.43-3.49,1.36-8.34-.76-3.34-1.82-6.67-2.73-9.85-3.49-13.04-6.97-26.37-10.31-39.56,1.06-1.36,4.55-4.09,6.06-5.46,5.46-4.4,4.24-5.15-3.18-13.49-2.88-3.33-5.91,0-7.43,1.52-2.27-6.82-4.09-14.85-5.91-21.98-.91-3.49,0-2.73,5.46-7.58,4.24-3.64,4.7-4.4.76-8.79-.91-1.21-3.49-4.55-4.4-5.31-2.88-2.27-5.61.91-6.67,1.97-1.52-1.52-1.82-5.46-2.43-7.73-.76-2.88-1.36-5.61-2.12-8.49-.76-2.12-2.43-6.06-.76-8.03.91-1.36,36.83-30.92,45.93-40.17,1.82-2.12,3.34-3.79,5.31-5.91,25.01-26.68,9.85-35.92-4.24-29.1-5.61,2.58-18.19,9.85-22.89,13.95l-43.81,36.98c-2.58,1.97-5,.3-7.88-1.06-5.3-2.43-10.61-4.7-15.92-6.82.76-1.82,5.46-3.64,2.42-7.43-10.31-13.04-8.49-7.73-19.1,0-2.58-.91-21.98-9.25-22.89-10.31,7.12-4.55.91-8.34-2.73-12.88-.91-1.21-1.52-2.12-3.79-1.82-1.67.15-8.94,6.82-9.55,7.88-3.18-.76-41.08-17.89-47.29-20.46-8.19-3.33-5-2.42-15.76,6.21-8.64,6.97-7.88,5.46-.15,11.67l44.41,35.17c4.09,3.49,8.79,6.67,12.88,9.85l37.74,30.01c-.61,1.82-9.85,9.25-11.82,10.91-4.24,3.64-8.19,7.12-12.58,10.76-8.03,6.97-10.31,8.79-17.58,16.52-4.85,5.15-6.06,6.97-10.61,12.88-1.52,1.97-3.34,5.61-5.91,5.46-2.43-.15-35.62-8.49-39.71-9.25-3.94-.76-5.46,1.97-7.58,3.64-5.76,4.55-7.28,5.31-3.94,7.28l7.12,4.24c8.49,5,19.55,12.28,27.74,16.52-1.67,2.27-6.06,6.21-5,10.91,4.85,1.36,8.94-1.82,11.22-3.33,1.82,2.12,9.85,25.16,11.22,26.37h0Z"/>
          <path class="cls-6" d="M1153.34,325.77c-68.33,29.66-152.26,59.2-239.12,84.65-8.63-4.98-16.99-11.01-22.19-19.75-5.64-9.46-6.92-21.69-3.26-32.09,8.02-23.24,35.13-34.75,56.1-40.61,68.83-19.25,141.69-15.44,208.47,7.8Z"/>
          <path class="cls-6" d="M1204.18,425.69c-43.49,34.03-99.2,70.65-161.61,106.28-2.38-5.48-4.81-11.07-7.41-16.54-22.41-47.03-59.86-70.76-101.14-93.94,87.91-26.5,172.29-57.1,240.23-87.69,28.88,12.01,56.38,27.83,81.66,47.08-14.22,14.11-31.59,29.16-51.73,44.81Z"/>
          <path class="cls-6" d="M1342.94,481.29c1.72,32.31-47.47,52.28-69.32,63.96-41.83,22.35-84.26,42.32-131.79,47.14-19.64,1.99-40.17,1.22-58.09-7.64-17.21-8.52-26.67-22.35-34.36-37.95,63.63-36.29,120.5-73.58,164.82-108.38,21.08-16.32,39.39-32.26,54.39-47.41,25.34,21.08,48.08,45.81,67.22,73.81,3.37,4.98,6.81,10.4,7.14,16.49Z"/>
        </g>
        <text class="cls-4" transform="translate(158.76 1534.87)"><tspan class="cls-19" x="0" y="0">V</tspan><tspan x="146" y="0">O</tspan><tspan class="cls-23" x="327.85" y="0">Y</tspan><tspan x="456.2" y="0">AGEEDGE </tspan></text>
        <text class="cls-2" transform="translate(423.41 1708.55)"><tspan x="0" y="0">T</tspan><tspan class="cls-20" x="85.31" y="0">R</tspan><tspan class="cls-24" x="175.81" y="0">A</tspan><tspan x="248.18" y="0">VEL SE</tspan><tspan class="cls-21" x="691.08" y="0">R</tspan><tspan x="774.42" y="0">VICES</tspan></text>
      </g>
    </g>
  </g>
</svg>